#N canvas 804 330 600 459 10;
#X obj 7 11 inlet~;
#X obj 71 43 adc~;
#X obj 13 176 *~;
#X obj 43 176 *~;
#X obj 14 204 dac~;
#X obj 171 20 inlet;
#X msg 131 47 1;
#X obj 140 73 -;
#X obj 109 15 loadbang;
#X obj 96 94 *~;
#X obj 68 95 *~;
#X obj 97 128 +~;
#X obj 67 129 +~;
#X obj 51 11 inlet~;
#X connect 0 0 2 0;
#X connect 1 0 10 0;
#X connect 1 1 9 0;
#X connect 2 0 4 0;
#X connect 3 0 4 1;
#X connect 5 0 7 1;
#X connect 5 0 11 1;
#X connect 5 0 12 1;
#X connect 6 0 7 0;
#X connect 7 0 9 1;
#X connect 7 0 10 1;
#X connect 8 0 6 0;
#X connect 9 0 11 0;
#X connect 10 0 12 0;
#X connect 11 0 3 1;
#X connect 12 0 2 1;
#X connect 13 0 3 0;
