#N canvas 0 29 1321 777 12;
#X obj 269 21 loadbang;
#X obj 283 235 soundfiler;
#X obj 390 119 i \$0;
#X floatatom 278 272 15 0 0 0 - - -;
#X obj 270 72 t b b;
#N canvas 0 22 450 278 (subpatch) 0;
#X array \$0-sound-L 719250 float 2;
#X coords 0 1 719250 -1 200 140 1 0 0;
#X restore 652 31 graph;
#X obj 237 477 line~;
#X obj 293 538 *~;
#X obj 268 52 bng 15 250 50 0 empty empty empty 17 7 0 10 -262144 -1
-1;
#N canvas 0 22 450 278 (subpatch) 0;
#X array \$0-sound-R 719250 float 2;
#X coords 0 1 719250 -1 200 140 1 0 0;
#X restore 857 33 graph;
#X floatatom 450 275 5 0 0 0 - - -;
#X obj 169 673 tabread4~ \$0-sound-L;
#X obj 392 669 tabread4~ \$0-sound-R;
#X obj 450 303 / 1000;
#X floatatom 406 390 15 0 0 0 - - -;
#X floatatom 715 455 5 0 0 0 - - -;
#X obj 700 542 / 1000;
#X floatatom 700 571 5 0 0 0 - - -;
#X obj 737 618 pack f f;
#X obj 721 496 t f f;
#X msg 745 671 \$1 \$2;
#X msg 938 398 0;
#X obj 715 397 random 1000;
#X floatatom 527 538 15 0 0 0 - - -;
#X obj 605 392 random;
#X obj 894 350 t b b b b;
#X obj 986 399 random 10;
#X obj 986 428 / 10;
#X obj 991 477 + 1;
#X obj 715 426 + 100;
#X msg 281 200 read -resize Sounds/\$1.wav \$2-sound-L \$2-sound-R
;
#X obj 299 165 pack s f;
#X obj 262 121 symbol \$1;
#X obj 930 234 inlet;
#X obj 811 543 * 1;
#X obj 406 361 / 44.1;
#X obj 176 732 outlet~;
#X obj 425 744 outlet~;
#X obj 236 710 throw~ output_L;
#X obj 433 707 throw~ output_R;
#X connect 0 0 8 0;
#X connect 1 0 3 0;
#X connect 1 1 10 0;
#X connect 2 0 31 1;
#X connect 3 0 7 1;
#X connect 3 0 24 1;
#X connect 3 0 35 0;
#X connect 4 0 32 0;
#X connect 4 1 2 0;
#X connect 6 0 7 0;
#X connect 7 0 11 0;
#X connect 7 0 12 0;
#X connect 8 0 4 0;
#X connect 10 0 13 0;
#X connect 11 0 36 0;
#X connect 11 0 38 0;
#X connect 12 0 37 0;
#X connect 12 0 39 0;
#X connect 13 0 35 1;
#X connect 14 0 16 1;
#X connect 15 0 19 0;
#X connect 16 0 17 0;
#X connect 17 0 18 0;
#X connect 18 0 20 0;
#X connect 19 0 16 0;
#X connect 19 1 34 0;
#X connect 20 0 6 0;
#X connect 21 0 6 0;
#X connect 22 0 29 0;
#X connect 23 0 11 1;
#X connect 23 0 12 1;
#X connect 24 0 23 0;
#X connect 25 0 22 0;
#X connect 25 1 21 0;
#X connect 25 2 24 0;
#X connect 25 3 26 0;
#X connect 26 0 27 0;
#X connect 27 0 28 0;
#X connect 28 0 34 1;
#X connect 29 0 15 0;
#X connect 30 0 1 0;
#X connect 31 0 30 0;
#X connect 32 0 31 0;
#X connect 33 0 25 0;
#X connect 34 0 18 1;
#X connect 35 0 14 0;
