#N canvas 494 54 1404 923 10;
#X obj 143 148 *~ 2;
#X obj 143 169 -~ 1;
#X obj 143 225 *~ 0.25;
#X obj 144 5 noise~;
#X obj 144 124 phasor~;
#X obj 144 31 lop~ 20;
#X obj 231 98 sig~;
#X msg 231 74 1425;
#X obj 253 -2 loadbang;
#X obj 181 473 ADCHelper;
#X obj 238 455 tgl 15 0 empty empty empty 17 7 0 10 -262144 -1 -1 1
1;
#X obj 510 23 receive size;
#X obj 144 84 +~;
#X msg 212 34 50;
#X obj 145 59 *~ 50;
#X obj 143 197 vcf~ 2;
#X obj 238 133 big_synth;
#X obj 572 104 * 0.3;
#X obj 572 125 s random_depth_rcv;
#X obj 225 227 *~ 3, f 8;
#X obj 285 227 *~ 3, f 8;
#X obj 501 136 + 3;
#X floatatom 501 178 5 0 0 0 - - -, f 5;
#X floatatom 554 143 5 0 0 0 - - -, f 5;
#X obj 507 99 * 7;
#X obj 511 48 - 1;
#X obj 509 71 / 4;
#X obj 166 336 lop~ 22000;
#X obj 244 336 lop~ 22000;
#X obj 391 89 receive occlusion;
#X text 389 72 0 -> 1;
#X text 510 5 1 -> 20;
#X obj 355 207 expr 1-$f1;
#X obj 325 277 * 21800;
#X obj 323 302 + 200;
#X obj 350 249 *;
#X obj 325 75 loadbang;
#X msg 325 92 0;
#X obj 351 228 t f f;
#X obj 354 184 line;
#X obj 354 147 pack f 100;
#X obj 93 139 osc~;
#X obj 68 212 *~;
#X obj 92 110 *~ 16;
#X obj 49 75 receive node1;
#X obj 93 164 *~ 3;
#N canvas 776 190 958 617 combfilter 0;
#X obj 21 56 inlet~;
#X obj 30 86 delwrite~ combdel 500;
#X obj 200 170 delread4~ combdel;
#X obj 258 58 inlet~;
#X obj 26 268 outlet~;
#X obj 200 113 /~;
#X msg 190 49 1;
#X obj 190 72 sig~;
#X obj 200 144 *~ 1000;
#X obj 190 17 loadbang;
#X text 20 36 audio in;
#X text 257 37 resonant frequency;
#X obj 253 85 *~ 8;
#X obj 200 196 *~ 0.9;
#X obj 89 175 receive node2;
#X obj 83 225 *~;
#X connect 0 0 1 0;
#X connect 0 0 4 0;
#X connect 2 0 13 0;
#X connect 3 0 12 0;
#X connect 5 0 8 0;
#X connect 6 0 7 0;
#X connect 7 0 5 0;
#X connect 8 0 2 0;
#X connect 9 0 6 0;
#X connect 12 0 5 1;
#X connect 13 0 1 0;
#X connect 13 0 15 0;
#X connect 14 0 15 1;
#X connect 15 0 4 0;
#X restore 161 404 pd combfilter;
#N canvas 776 190 958 617 combfilter 0;
#X obj 21 56 inlet~;
#X obj 258 58 inlet~;
#X obj 26 268 outlet~;
#X obj 200 113 /~;
#X msg 190 49 1;
#X obj 190 72 sig~;
#X obj 200 144 *~ 1000;
#X obj 190 17 loadbang;
#X text 20 36 audio in;
#X text 257 37 resonant frequency;
#X obj 253 85 *~ 8;
#X obj 200 196 *~ 0.9;
#X obj 97 188 receive node2;
#X obj 83 225 *~;
#X obj 29 86 delwrite~ combdel2 500;
#X obj 201 170 delread4~ combdel2;
#X connect 0 0 2 0;
#X connect 0 0 14 0;
#X connect 1 0 10 0;
#X connect 3 0 6 0;
#X connect 4 0 5 0;
#X connect 5 0 3 0;
#X connect 6 0 15 0;
#X connect 7 0 4 0;
#X connect 10 0 3 1;
#X connect 11 0 13 0;
#X connect 11 0 14 0;
#X connect 12 0 13 1;
#X connect 13 0 2 0;
#X connect 15 0 11 0;
#X restore 256 398 pd combfilter;
#N canvas 861 102 863 553 peaking 0;
#X obj 53 21 inlet~;
#X obj 83 192 outlet~;
#X obj 76 68 receive node3;
#X obj 139 159 *~;
#X obj 60 108 expr 1-$f1;
#X obj 49 142 *~;
#X obj 193 73 bp~ 2400 32;
#X obj 173 108 *~ 20;
#X obj 138 18 loadbang;
#X msg 138 35 0;
#X connect 0 0 5 0;
#X connect 0 0 6 0;
#X connect 2 0 3 1;
#X connect 2 0 4 0;
#X connect 3 0 1 0;
#X connect 4 0 5 1;
#X connect 5 0 1 0;
#X connect 6 0 7 0;
#X connect 7 0 3 0;
#X connect 8 0 9 0;
#X connect 9 0 4 0;
#X connect 9 0 3 1;
#X restore 157 376 pd peaking;
#N canvas 861 102 863 553 peaking 0;
#X obj 53 21 inlet~;
#X obj 83 192 outlet~;
#X obj 76 68 receive node3;
#X obj 139 159 *~;
#X obj 60 108 expr 1-$f1;
#X obj 49 142 *~;
#X obj 193 73 bp~ 2400 32;
#X obj 173 108 *~ 20;
#X obj 138 18 loadbang;
#X msg 138 35 0;
#X connect 0 0 5 0;
#X connect 0 0 6 0;
#X connect 2 0 3 1;
#X connect 2 0 4 0;
#X connect 3 0 1 0;
#X connect 4 0 5 1;
#X connect 5 0 1 0;
#X connect 6 0 7 0;
#X connect 7 0 3 0;
#X connect 8 0 9 0;
#X connect 9 0 4 0;
#X connect 9 0 3 1;
#X restore 252 375 pd peaking;
#X connect 0 0 1 0;
#X connect 1 0 15 0;
#X connect 2 0 27 0;
#X connect 2 0 28 0;
#X connect 3 0 5 0;
#X connect 4 0 0 0;
#X connect 5 0 14 0;
#X connect 6 0 15 1;
#X connect 7 0 6 0;
#X connect 8 0 7 0;
#X connect 8 0 13 0;
#X connect 10 0 9 2;
#X connect 11 0 25 0;
#X connect 12 0 4 0;
#X connect 12 0 16 0;
#X connect 12 0 43 0;
#X connect 12 0 46 1;
#X connect 12 0 47 1;
#X connect 13 0 12 1;
#X connect 14 0 12 0;
#X connect 15 0 2 0;
#X connect 16 0 19 0;
#X connect 16 1 20 0;
#X connect 17 0 18 0;
#X connect 17 0 23 0;
#X connect 19 0 27 0;
#X connect 20 0 28 0;
#X connect 21 0 22 0;
#X connect 22 0 20 1;
#X connect 22 0 19 1;
#X connect 24 0 21 0;
#X connect 25 0 26 0;
#X connect 26 0 24 0;
#X connect 26 0 17 0;
#X connect 27 0 48 0;
#X connect 28 0 49 0;
#X connect 29 0 40 0;
#X connect 32 0 38 0;
#X connect 33 0 34 0;
#X connect 34 0 28 1;
#X connect 34 0 27 1;
#X connect 35 0 33 0;
#X connect 36 0 37 0;
#X connect 37 0 40 0;
#X connect 38 0 35 0;
#X connect 38 1 35 1;
#X connect 39 0 32 0;
#X connect 40 0 39 0;
#X connect 41 0 45 0;
#X connect 42 0 27 0;
#X connect 42 0 28 0;
#X connect 43 0 41 0;
#X connect 44 0 42 1;
#X connect 45 0 42 0;
#X connect 46 0 9 0;
#X connect 47 0 9 1;
#X connect 48 0 46 0;
#X connect 49 0 47 0;
