#N canvas 560 0 965 927 10;
#X obj 39 245 *~ 2;
#X obj 39 266 -~ 1;
#X obj 39 322 *~ 0.25;
#X obj 39 22 noise~;
#X obj 40 221 phasor~;
#X obj 39 48 lop~ 20;
#X obj 147 173 sig~;
#X msg 147 149 1425;
#X obj 148 15 loadbang;
#X obj 95 570 ADCHelper;
#X obj 152 551 tgl 15 0 empty empty empty 17 7 0 10 -262144 -1 -1 0
1;
#X obj 448 177 receive size;
#X obj 39 101 +~;
#X msg 107 51 50;
#X obj 40 76 *~ 50;
#X obj 39 294 vcf~ 2;
#X obj 130 255 big_synth;
#X obj 578 395 * 0.3;
#X obj 578 416 s random_depth_rcv;
#X obj 95 379 *~ 3, f 8;
#X obj 155 379 *~ 3, f 8;
#X obj 386 398 + 3;
#X floatatom 386 440 5 0 0 0 - - -, f 5;
#X floatatom 535 453 5 0 0 0 - - -, f 5;
#X obj 429 372 * 7;
#X obj 447 242 - 1;
#X obj 445 265 / 4;
#X obj 65 499 lop~ 22000;
#X obj 143 499 lop~ 22000;
#X obj 277 251 receive occlusion;
#X text 275 234 0 -> 1;
#X text 448 159 1 -> 20;
#X obj 241 369 expr 1-$f1;
#X obj 211 439 * 21800;
#X obj 209 464 + 200;
#X obj 236 411 *;
#X obj 211 237 loadbang;
#X msg 211 254 0;
#X obj 237 390 t f f;
#X obj 240 346 line;
#X obj 240 309 pack f 100;
#X connect 0 0 1 0;
#X connect 1 0 15 0;
#X connect 2 0 27 0;
#X connect 2 0 28 0;
#X connect 3 0 5 0;
#X connect 4 0 0 0;
#X connect 5 0 14 0;
#X connect 6 0 15 1;
#X connect 7 0 6 0;
#X connect 8 0 7 0;
#X connect 8 0 13 0;
#X connect 10 0 9 2;
#X connect 11 0 25 0;
#X connect 12 0 4 0;
#X connect 12 0 16 0;
#X connect 13 0 12 1;
#X connect 14 0 12 0;
#X connect 15 0 2 0;
#X connect 16 0 19 0;
#X connect 16 1 20 0;
#X connect 17 0 18 0;
#X connect 17 0 23 0;
#X connect 19 0 27 0;
#X connect 20 0 28 0;
#X connect 21 0 22 0;
#X connect 22 0 20 1;
#X connect 22 0 19 1;
#X connect 24 0 21 0;
#X connect 25 0 26 0;
#X connect 26 0 24 0;
#X connect 26 0 17 0;
#X connect 27 0 9 0;
#X connect 28 0 9 1;
#X connect 29 0 40 0;
#X connect 32 0 38 0;
#X connect 33 0 34 0;
#X connect 34 0 28 1;
#X connect 34 0 27 1;
#X connect 35 0 33 0;
#X connect 36 0 37 0;
#X connect 37 0 40 0;
#X connect 38 0 35 0;
#X connect 38 1 35 1;
#X connect 39 0 32 0;
#X connect 40 0 39 0;
