#N canvas 392 53 1457 855 10;
#X obj 121 153 *~ 2;
#X obj 121 174 -~ 1;
#X obj 121 230 *~ 0.25;
#X obj 122 10 noise~;
#X obj 122 129 phasor~;
#X obj 122 36 lop~ 20;
#X obj 209 103 sig~;
#X msg 209 79 1425;
#X obj 231 3 loadbang;
#X obj 172 566 ADCHelper;
#X obj 248 525 tgl 15 0 empty empty empty 17 7 0 10 -262144 -1 -1 1
1;
#X obj 488 28 receive size;
#X obj 122 89 +~;
#X msg 190 39 50;
#X obj 123 64 *~ 50;
#X obj 121 202 vcf~ 2;
#X obj 220 185 big_synth;
#X obj 550 109 * 0.3;
#X obj 550 130 s random_depth_rcv;
#X floatatom 532 148 5 0 0 0 - - -, f 5;
#X obj 122 346 lop~ 22000;
#X obj 220 349 lop~ 22000;
#X obj 369 94 receive occlusion;
#X text 367 77 0 -> 1;
#X text 488 10 1 -> 20;
#X obj 333 212 expr 1-$f1;
#X obj 328 254 *;
#X obj 303 80 loadbang;
#X msg 303 97 0;
#X obj 329 233 t f f;
#X obj 332 189 line;
#X obj 333 151 pack f 100;
#X obj 71 144 osc~;
#X obj 46 217 *~;
#X obj 70 115 *~ 16;
#X obj 27 66 receive node1;
#N canvas 861 102 863 553 peaking 0;
#X obj 53 21 inlet~;
#X obj 83 192 outlet~;
#X obj 76 68 receive node3;
#X obj 139 159 *~;
#X obj 60 108 expr 1-$f1;
#X obj 49 142 *~;
#X obj 193 73 bp~ 2400 32;
#X obj 173 108 *~ 20;
#X obj 138 18 loadbang;
#X msg 138 35 0;
#X connect 0 0 5 0;
#X connect 0 0 6 0;
#X connect 2 0 3 1;
#X connect 2 0 4 0;
#X connect 3 0 1 0;
#X connect 4 0 5 1;
#X connect 5 0 1 0;
#X connect 6 0 7 0;
#X connect 7 0 3 0;
#X connect 8 0 9 0;
#X connect 9 0 4 0;
#X connect 9 0 3 1;
#X restore 135 381 pd peaking;
#N canvas 545 102 863 553 peaking 0;
#X obj 53 21 inlet~;
#X obj 83 192 outlet~;
#X obj 76 68 receive node3;
#X obj 139 159 *~;
#X obj 60 108 expr 1-$f1;
#X obj 49 142 *~;
#X obj 193 73 bp~ 2400 32;
#X obj 173 108 *~ 20;
#X obj 138 18 loadbang;
#X msg 138 35 0;
#X connect 0 0 5 0;
#X connect 0 0 6 0;
#X connect 2 0 3 1;
#X connect 2 0 4 0;
#X connect 3 0 1 0;
#X connect 4 0 5 1;
#X connect 5 0 1 0;
#X connect 6 0 7 0;
#X connect 7 0 3 0;
#X connect 8 0 9 0;
#X connect 9 0 4 0;
#X connect 9 0 3 1;
#X restore 230 380 pd peaking;
#X obj 205 470 *~;
#X obj 260 470 *~;
#X obj 284 503 dac~;
#X obj 346 427 tgl 15 0 empty empty empty 17 7 0 10 -262144 -1 -1 0
1;
#X msg 342 447 \$1 40;
#X obj 360 481 line~;
#X obj 326 321 mtof;
#X obj 346 280 * 100;
#X floatatom 384 118 5 0 0 0 - - -, f 5;
#X obj 346 301 + 40;
#X floatatom 572 27 5 0 0 0 - - -, f 5;
#X floatatom 236 234 5 0 0 0 - - -, f 5;
#X floatatom 13 180 5 0 0 0 - - -, f 5;
#X obj 194 270 *~ 3, f 8;
#X obj 258 271 *~ 3, f 8;
#X floatatom 599 101 5 0 0 0 - - -, f 5;
#X obj 489 53 / 20;
#X obj 574 230 vsl 8 64 0 1 0 0 node2 empty empty 0 -9 0 10 -262144
-1 -1 0 1;
#X text 546 209 Node sliders;
#X obj 590 231 vsl 8 64 0 1 0 0 node3 empty empty 0 -9 0 10 -262144
-1 -1 0 1;
#X obj 607 230 vsl 8 64 0 1 0 0 node4 empty empty 0 -9 0 10 -262144
-1 -1 0 1;
#X obj 555 230 vsl 8 64 0 1 0 0 node1 empty empty 0 -9 0 10 -262144
-1 -1 0 1;
#X obj 367 387 +~;
#X obj 368 321 node4_rhythm;
#X obj 134 499 expr~ tanh($v1);
#X obj 319 521 expr~ tanh($v1);
#X obj 136 412 combfilter;
#X obj 230 408 combfilter;
#X obj 71 169 *~ 1;
#X obj 408 393 expr~ 1-$v1;
#X obj 135 444 *~;
#X obj 233 442 *~;
#X obj 403 363 node4_rhythm;
#X obj 399 344 node4_rhythm;
#X connect 0 0 1 0;
#X connect 1 0 15 0;
#X connect 2 0 20 0;
#X connect 2 0 21 0;
#X connect 3 0 5 0;
#X connect 4 0 0 0;
#X connect 5 0 14 0;
#X connect 6 0 15 1;
#X connect 7 0 6 0;
#X connect 8 0 7 0;
#X connect 8 0 13 0;
#X connect 10 0 9 2;
#X connect 11 0 54 0;
#X connect 12 0 4 0;
#X connect 12 0 16 0;
#X connect 12 0 34 0;
#X connect 12 0 64 1;
#X connect 12 0 65 1;
#X connect 13 0 12 1;
#X connect 14 0 12 0;
#X connect 15 0 2 0;
#X connect 16 0 51 0;
#X connect 16 1 52 0;
#X connect 17 0 18 0;
#X connect 17 0 19 0;
#X connect 20 0 36 0;
#X connect 21 0 37 0;
#X connect 22 0 31 0;
#X connect 25 0 29 0;
#X connect 26 0 45 0;
#X connect 27 0 28 0;
#X connect 28 0 31 0;
#X connect 29 0 26 0;
#X connect 29 1 26 1;
#X connect 30 0 25 0;
#X connect 31 0 30 0;
#X connect 32 0 66 0;
#X connect 33 0 20 0;
#X connect 33 0 21 0;
#X connect 34 0 32 0;
#X connect 35 0 33 1;
#X connect 36 0 64 0;
#X connect 37 0 65 0;
#X connect 38 0 40 0;
#X connect 39 0 40 1;
#X connect 41 0 42 0;
#X connect 42 0 43 0;
#X connect 43 0 39 1;
#X connect 43 0 38 1;
#X connect 44 0 21 1;
#X connect 44 0 20 1;
#X connect 45 0 47 0;
#X connect 46 0 31 0;
#X connect 47 0 44 0;
#X connect 48 0 54 0;
#X connect 49 0 51 1;
#X connect 49 0 52 1;
#X connect 50 0 33 1;
#X connect 51 0 20 0;
#X connect 52 0 21 0;
#X connect 53 0 18 0;
#X connect 54 0 18 0;
#X connect 60 0 9 1;
#X connect 60 0 9 0;
#X connect 61 0 60 0;
#X connect 61 1 67 0;
#X connect 62 0 9 0;
#X connect 63 0 9 1;
#X connect 64 0 68 0;
#X connect 65 0 69 0;
#X connect 66 0 33 0;
#X connect 67 0 68 1;
#X connect 67 0 69 1;
#X connect 68 0 62 0;
#X connect 69 0 63 0;
#X connect 70 0 60 0;
#X connect 70 1 67 0;
#X connect 71 0 60 0;
#X connect 71 1 67 0;
