#N canvas 439 42 965 836 10;
#X obj 39 245 *~ 2;
#X obj 39 266 -~ 1;
#X obj 39 322 *~ 0.25;
#X obj 39 22 noise~;
#X obj 40 221 phasor~;
#X obj 39 48 lop~ 20;
#X obj 147 173 sig~;
#X msg 147 149 1425;
#X obj 148 15 loadbang;
#X obj 92 521 ADCHelper;
#X obj 149 502 tgl 15 0 empty empty empty 17 7 0 10 -262144 -1 -1 0
1;
#X obj 216 61 receive size;
#X obj 39 101 +~;
#X msg 107 51 50;
#X text 205 162 Pitch drop gives sensation of time;
#X text 208 179 slowing down.;
#X text 207 212 How to make it sound more imposing as it;
#X text 206 231 gets larger?;
#X obj 40 76 *~ 50;
#X obj 39 294 vcf~ 2;
#X obj 130 255 big_synth;
#X obj 462 286 - 40;
#X obj 462 307 / 10;
#X obj 466 341 expr 1-$f1;
#X obj 578 395 * 0.3;
#X obj 578 416 s random_depth_rcv;
#X obj 95 379 *~ 3, f 8;
#X obj 155 379 *~ 3, f 8;
#X obj 386 398 + 3;
#X floatatom 469 242 5 0 0 0 - - -;
#X floatatom 386 440 5 0 0 0 - - -;
#X floatatom 535 453 5 0 0 0 - - -;
#X obj 429 372 * 7;
#X connect 0 0 1 0;
#X connect 1 0 19 0;
#X connect 2 0 9 0;
#X connect 2 0 9 1;
#X connect 3 0 5 0;
#X connect 4 0 0 0;
#X connect 5 0 18 0;
#X connect 6 0 19 1;
#X connect 7 0 6 0;
#X connect 8 0 7 0;
#X connect 8 0 13 0;
#X connect 10 0 9 2;
#X connect 11 0 12 1;
#X connect 11 0 21 0;
#X connect 12 0 4 0;
#X connect 12 0 20 0;
#X connect 13 0 12 1;
#X connect 18 0 12 0;
#X connect 19 0 2 0;
#X connect 20 0 26 0;
#X connect 20 1 27 0;
#X connect 21 0 22 0;
#X connect 22 0 23 0;
#X connect 23 0 24 0;
#X connect 23 0 32 0;
#X connect 24 0 25 0;
#X connect 24 0 31 0;
#X connect 26 0 9 0;
#X connect 27 0 9 1;
#X connect 28 0 30 0;
#X connect 29 0 21 0;
#X connect 30 0 27 1;
#X connect 30 0 26 1;
#X connect 32 0 28 0;
