#N canvas 270 46 1138 832 16;
#X obj 362 409 dac~;
#X obj 570 356 delwrite~ boop 1000;
#X obj 588 397 delread~ boop 200;
#X obj 675 439 *~ 0.2;
#X obj 588 427 *~ 0.2;
#X obj 384 308 clone boopSynth2 4;
#X msg 382 237 all \$1;
#X obj 410 51 receive stepStoneOn;
#X obj 618 54 receive stepStoneOff;
#X obj 457 216 print chords;
#X msg 386 126 1;
#X msg 454 130 0;
#X connect 2 0 3 0;
#X connect 2 0 4 0;
#X connect 3 0 1 0;
#X connect 4 0 0 1;
#X connect 4 0 0 0;
#X connect 5 0 0 0;
#X connect 5 0 0 1;
#X connect 5 0 1 0;
#X connect 6 0 5 0;
#X connect 7 0 10 0;
#X connect 8 0 11 0;
#X connect 10 0 6 0;
#X connect 10 0 9 0;
#X connect 11 0 6 0;
#X connect 11 0 9 0;
