#N canvas 209 23 1138 832 16;
#X obj 643 509 osc~;
#N canvas 0 22 450 278 (subpatch) 0;
#X array array1 10 float 3;
#A 0 0.89 0.07 0.09 0.09 0.7 0.24 0.06 0.17 0.72 0.83;
#X coords 0 1 10 0 200 140 1 0 0;
#X restore 100 20 graph;
#X obj 492 191 tabread array1;
#X msg 494 44 1;
#X obj 494 73 +;
#X floatatom 494 102 5 0 0 0 - - -;
#X obj 562 82 r sequence_size;
#X floatatom 492 220 5 0 0 0 - - -;
#X obj 489 256 * 12;
#X obj 486 335 mtof;
#X msg 459 504 0 \$1;
#X obj 430 469 f;
#X obj 328 373 nbx 5 14 -1e+37 1e+37 0 1 decay decay_rcv decay 0 -8
0 10 -262144 -1 -1 538 256;
#X obj 496 369 t b b f;
#X obj 542 417 f;
#X obj 408 354 nbx 5 14 -1e+37 1e+37 0 1 attack attack_rcv attack 0
-8 0 10 -262144 -1 -1 9 256;
#X obj 449 421 delay;
#X obj 521 525 line~;
#X obj 585 570 *~;
#X obj 586 668 dac~;
#X floatatom 563 333 5 0 0 0 - - -;
#X msg 572 474 1 \$1;
#X obj 486 306 + 50;
#X obj 119 231 array;
#X obj 495 13 receive stepStoneOn;
#X obj 715 185 receive stepStoneOff;
#X obj 617 607 *~ 0.6;
#X obj 794 615 delwrite~ boop 1000;
#X obj 812 656 delread~ boop 200;
#X obj 812 685 *~ 0.8;
#X obj 899 698 *~ 0.4;
#X obj 139 629 tabwrite array1;
#X obj 117 432;
#X msg 182 408 1;
#X obj 182 437 +;
#X floatatom 182 466 5 0 0 0 - - -;
#X obj 189 355 until;
#X obj 137 535 random 100;
#X obj 137 564 / 100;
#X obj 177 505 t b f;
#X msg 266 383 0;
#X obj 216 312 t f b;
#X msg 184 264 10;
#X obj 502 140 % 10;
#X obj 199 215 loadbang;
#X connect 0 0 18 0;
#X connect 2 0 7 0;
#X connect 3 0 4 0;
#X connect 4 0 5 0;
#X connect 5 0 4 1;
#X connect 5 0 43 0;
#X connect 6 0 43 1;
#X connect 7 0 8 0;
#X connect 8 0 22 0;
#X connect 9 0 13 0;
#X connect 9 0 20 0;
#X connect 10 0 17 0;
#X connect 11 0 10 0;
#X connect 12 0 11 1;
#X connect 13 0 16 0;
#X connect 13 1 14 0;
#X connect 13 2 0 0;
#X connect 14 0 21 0;
#X connect 15 0 16 1;
#X connect 15 0 14 1;
#X connect 16 0 11 0;
#X connect 17 0 18 1;
#X connect 18 0 26 0;
#X connect 21 0 17 0;
#X connect 22 0 9 0;
#X connect 24 0 3 0;
#X connect 26 0 19 0;
#X connect 26 0 19 1;
#X connect 26 0 27 0;
#X connect 28 0 29 0;
#X connect 28 0 30 0;
#X connect 29 0 19 1;
#X connect 29 0 19 0;
#X connect 30 0 27 0;
#X connect 33 0 34 0;
#X connect 34 0 35 0;
#X connect 35 0 34 1;
#X connect 35 0 39 0;
#X connect 36 0 33 0;
#X connect 37 0 38 0;
#X connect 38 0 31 0;
#X connect 39 0 37 0;
#X connect 39 1 31 1;
#X connect 40 0 35 0;
#X connect 41 0 36 0;
#X connect 41 1 40 0;
#X connect 42 0 41 0;
#X connect 43 0 2 0;
#X connect 44 0 42 0;
