#N canvas 134 23 1138 832 16;
#X obj 633 578 osc~;
#N canvas 0 22 450 278 (subpatch) 0;
#X array \$0-array1 10 float 3;
#A 0 0.62 0.29 0.01 0.35 0.11 0.54 0.72 0.53 0.64 0.75;
#X coords 0 1 10 0 200 140 1 0 0;
#X restore 100 20 graph;
#X msg 494 44 1;
#X obj 494 73 +;
#X floatatom 494 102 5 0 0 0 - - -;
#X obj 562 82 r sequence_size;
#X floatatom 492 220 5 0 0 0 - - -;
#X obj 489 256 * 12;
#X obj 486 335 mtof;
#X msg 449 573 0 \$1;
#X obj 420 538 f;
#X obj 375 435 nbx 5 14 -1e+37 1e+37 0 1 decay decay_rcv decay 0 -8
0 10 -262144 -1 -1 538 256;
#X obj 486 438 t b b f;
#X obj 553 497 f;
#X obj 730 379 nbx 5 14 -1e+37 1e+37 0 1 attack attack_rcv attack 0
-8 0 10 -262144 -1 -1 9 256;
#X obj 511 594 line~;
#X obj 575 639 *~;
#X floatatom 563 333 5 0 0 0 - - -;
#X msg 562 543 1 \$1;
#X obj 486 306 + 50;
#X msg 182 408 1;
#X obj 182 437 +;
#X floatatom 182 466 5 0 0 0 - - -;
#X obj 189 355 until;
#X obj 137 535 random 100;
#X obj 137 564 / 100;
#X obj 177 505 t b f;
#X msg 266 383 0;
#X obj 216 312 t f b;
#X msg 184 264 10;
#X obj 502 140 % 10;
#X obj 199 215 loadbang;
#X obj 608 402 bng 15 250 50 0 empty empty empty 17 7 0 10 -262144
-1 -1;
#X obj 792 38 tgl 15 0 empty empty empty 17 7 0 10 -262144 -1 -1 0
1;
#X obj 792 58 sel 0 1;
#X obj 659 26 inlet;
#X obj 140 629 tabwrite \$0-array1;
#X obj 491 192 tabread \$0-array1;
#X obj 601 737 outlet~;
#X obj 607 676 *~ 0.1;
#X connect 0 0 16 0;
#X connect 2 0 3 0;
#X connect 3 0 4 0;
#X connect 4 0 3 1;
#X connect 4 0 30 0;
#X connect 5 0 30 1;
#X connect 6 0 7 0;
#X connect 7 0 19 0;
#X connect 8 0 12 0;
#X connect 8 0 17 0;
#X connect 9 0 15 0;
#X connect 10 0 9 0;
#X connect 11 0 10 1;
#X connect 12 1 13 0;
#X connect 12 2 0 0;
#X connect 13 0 18 0;
#X connect 14 0 13 1;
#X connect 15 0 16 1;
#X connect 16 0 39 0;
#X connect 18 0 15 0;
#X connect 19 0 8 0;
#X connect 20 0 21 0;
#X connect 21 0 22 0;
#X connect 22 0 21 1;
#X connect 22 0 26 0;
#X connect 23 0 20 0;
#X connect 24 0 25 0;
#X connect 25 0 36 0;
#X connect 26 0 24 0;
#X connect 26 1 36 1;
#X connect 27 0 22 0;
#X connect 28 0 23 0;
#X connect 28 1 27 0;
#X connect 29 0 28 0;
#X connect 30 0 37 0;
#X connect 31 0 29 0;
#X connect 32 0 10 0;
#X connect 33 0 34 0;
#X connect 34 0 32 0;
#X connect 34 1 2 0;
#X connect 35 0 33 0;
#X connect 37 0 6 0;
#X connect 39 0 38 0;
