#N canvas 106 91 1138 832 16;
#X floatatom 476 263 5 0 0 0 - - -;
#X obj 473 299 * 12;
#X obj 470 378 mtof;
#X obj 486 438 t b b f;
#X obj 553 497 f;
#X obj 730 379 nbx 5 14 -1e+37 1e+37 0 1 attack attack_rcv attack 0
-8 0 10 -262144 -1 -1 9 256;
#X obj 511 594 line~;
#X obj 575 639 *~;
#X floatatom 547 376 5 0 0 0 - - -;
#X msg 528 535 1 \$1;
#X obj 470 349 + 50;
#X obj 601 737 outlet~;
#X obj 607 676 *~ 0.1;
#X obj 716 600 osc~;
#X obj 815 550 tabosc4~ wave;
#X obj 780 517 sig~;
#X obj 815 621 lop~ 500;
#X obj 475 235 tabread chordarray;
#X obj 469 103 receive stepStoneOn;
#X obj 677 106 receive stepStoneOff;
#X obj 469 169 + \$1;
#X obj 319 96 tgl 15 0 empty empty empty 17 7 0 10 -262144 -1 -1 0
1;
#X obj 319 116 sel 1 0;
#X obj 299 167 random 28;
#X obj 846 339 bng 15 250 50 0 empty empty empty 17 7 0 10 -262144
-1 -1;
#X obj 848 239 t b;
#X msg 848 384 0 600;
#X obj 392 476 delay 30;
#X msg 393 516 0.3 200;
#X connect 0 0 1 0;
#X connect 1 0 10 0;
#X connect 2 0 3 0;
#X connect 2 0 8 0;
#X connect 3 0 27 0;
#X connect 3 1 4 0;
#X connect 3 2 15 0;
#X connect 4 0 9 0;
#X connect 5 0 4 1;
#X connect 6 0 7 1;
#X connect 7 0 12 0;
#X connect 9 0 6 0;
#X connect 10 0 2 0;
#X connect 12 0 11 0;
#X connect 13 0 7 0;
#X connect 14 0 16 0;
#X connect 15 0 14 0;
#X connect 15 0 13 0;
#X connect 16 0 7 0;
#X connect 17 0 0 0;
#X connect 18 0 20 0;
#X connect 19 0 25 0;
#X connect 20 0 17 0;
#X connect 21 0 22 0;
#X connect 22 0 23 0;
#X connect 22 1 25 0;
#X connect 23 0 17 0;
#X connect 24 0 26 0;
#X connect 25 0 24 0;
#X connect 26 0 6 0;
#X connect 27 0 28 0;
#X connect 28 0 6 0;
