#N canvas 100 23 1308 737 16;
#X obj 447 734 dac~;
#X obj 857 591 *~ 0.2;
#X obj 206 46 receive doorBreak1;
#X obj 417 43 receive doorBreak2;
#X obj 630 42 receive doorBreak3;
#X obj 148 177 bng 15 250 50 0 empty empty empty 17 7 0 10 -262144
-1 -1;
#X obj 107 249 bangSound crackle_narrow_close;
#X obj 440 201 bng 15 250 50 0 empty empty empty 17 7 0 10 -262144
-1 -1;
#X obj 432 252 bangSound crackle_short_close;
#X obj 986 209 bng 15 250 50 0 empty empty empty 17 7 0 10 -262144
-1 -1;
#X obj 976 261 bangSound crackle_short_wide_close;
#X obj 751 511 delwrite~ boopL 1000;
#X obj 1026 515 delwrite~ boopR 1000;
#X obj 1074 584 *~ 0.2;
#X obj 402 127 bng 15 250 50 0 empty empty empty 17 7 0 10 -262144
-1 -1;
#X obj 656 127 bng 15 250 50 0 empty empty empty 17 7 0 10 -262144
-1 -1;
#X obj 857 561 delread~ boopL 100;
#X obj 1071 554 delread~ boopR 100;
#X obj 944 603 *~ 0.5;
#X obj 1161 596 *~ 0.5;
#X obj 765 220 bng 15 250 50 0 empty empty empty 17 7 0 10 -262144
-1 -1;
#X obj 59 412 bng 15 250 50 0 empty empty empty 17 7 0 10 -262144 -1
-1;
#X obj 545 329 bng 15 250 50 0 empty empty empty 17 7 0 10 -262144
-1 -1;
#X obj 754 251 crashPitch crash4 2;
#X obj 526 362 crashPitch crash2 3;
#X obj 48 445 crashPitch crash3 3;
#X obj 402 614 *~;
#X obj 434 574 adc~;
#X obj 519 619 *~;
#X obj 220 610 *~;
#X obj 282 612 *~;
#X obj 315 441 tgl 15 0 empty empty test_audio 17 7 0 10 -262144 -1
-1 1 1;
#X obj 499 437 catch~ output_L;
#X obj 670 443 catch~ output_R;
#X connect 1 0 26 0;
#X connect 1 0 29 0;
#X connect 2 0 5 0;
#X connect 3 0 14 0;
#X connect 4 0 15 0;
#X connect 5 0 6 0;
#X connect 5 0 20 0;
#X connect 7 0 8 0;
#X connect 9 0 10 0;
#X connect 13 0 28 0;
#X connect 13 0 30 0;
#X connect 14 0 7 0;
#X connect 14 0 5 0;
#X connect 14 0 21 0;
#X connect 15 0 5 0;
#X connect 15 0 7 0;
#X connect 15 0 9 0;
#X connect 15 0 22 0;
#X connect 16 0 1 0;
#X connect 16 0 18 0;
#X connect 17 0 13 0;
#X connect 17 0 19 0;
#X connect 18 0 11 0;
#X connect 19 0 12 0;
#X connect 20 0 23 0;
#X connect 21 0 25 0;
#X connect 22 0 24 0;
#X connect 26 0 0 0;
#X connect 27 0 26 1;
#X connect 27 1 28 1;
#X connect 28 0 0 1;
#X connect 29 0 0 0;
#X connect 30 0 0 1;
#X connect 31 0 29 1;
#X connect 31 0 30 1;
#X connect 32 0 26 0;
#X connect 32 0 29 0;
#X connect 32 0 11 0;
#X connect 33 0 28 0;
#X connect 33 0 30 0;
#X connect 33 0 12 0;
