#N canvas 215 23 1308 737 16;
#X obj 340 737 dac~;
#X obj 857 591 *~ 0.2;
#X obj 206 46 receive doorBreak1;
#X obj 417 43 receive doorBreak2;
#X obj 630 42 receive doorBreak3;
#X obj 148 177 bng 15 250 50 0 empty empty empty 17 7 0 10 -262144
-1 -1;
#X obj 107 249 bangSound crackle_narrow_close;
#X obj 440 201 bng 15 250 50 0 empty empty empty 17 7 0 10 -262144
-1 -1;
#X obj 432 252 bangSound crackle_short_close;
#X obj 511 307 bng 15 250 50 0 empty empty empty 17 7 0 10 -262144
-1 -1;
#X obj 501 359 bangSound crackle_short_wide_close;
#X obj 792 512 delwrite~ boopL 1000;
#X obj 1026 515 delwrite~ boopR 1000;
#X obj 1074 584 *~ 0.2;
#X obj 608 426 *~ 1;
#X obj 461 434 *~ 1;
#X obj 402 127 bng 15 250 50 0 empty empty empty 17 7 0 10 -262144
-1 -1;
#X obj 656 127 bng 15 250 50 0 empty empty empty 17 7 0 10 -262144
-1 -1;
#X obj 857 561 delread~ boopL 100;
#X obj 1071 554 delread~ boopR 100;
#X obj 944 603 *~ 0.5;
#X obj 1161 596 *~ 0.5;
#X obj 965 170 bng 15 250 50 0 empty empty empty 17 7 0 10 -262144
-1 -1;
#X obj 765 220 bng 15 250 50 0 empty empty empty 17 7 0 10 -262144
-1 -1;
#X obj 896 344 dac~;
#X obj 59 412 bng 15 250 50 0 empty empty empty 17 7 0 10 -262144 -1
-1;
#X obj 108 528 dac~;
#X obj 290 479 bng 15 250 50 0 empty empty empty 17 7 0 10 -262144
-1 -1;
#X obj 338 564 dac~;
#X obj 754 251 crashPitch crash4 2;
#X obj 47 488 *~ 0.3;
#X obj 163 494 *~ 0.3;
#X obj 783 295 *~ 0.2;
#X obj 878 304 *~ 0.2;
#X obj 271 512 crashPitch crash2 3;
#X obj 48 445 crashPitch crash3 3;
#X connect 1 0 0 0;
#X connect 2 0 5 0;
#X connect 3 0 16 0;
#X connect 4 0 17 0;
#X connect 5 0 6 0;
#X connect 5 0 23 0;
#X connect 6 0 15 0;
#X connect 6 1 14 0;
#X connect 7 0 8 0;
#X connect 8 0 15 0;
#X connect 8 1 14 0;
#X connect 9 0 10 0;
#X connect 10 0 15 0;
#X connect 10 1 14 0;
#X connect 13 0 0 1;
#X connect 14 0 12 0;
#X connect 14 0 0 1;
#X connect 15 0 0 0;
#X connect 15 0 11 0;
#X connect 16 0 7 0;
#X connect 16 0 5 0;
#X connect 16 0 25 0;
#X connect 17 0 5 0;
#X connect 17 0 7 0;
#X connect 17 0 9 0;
#X connect 17 0 22 0;
#X connect 17 0 27 0;
#X connect 18 0 1 0;
#X connect 18 0 20 0;
#X connect 19 0 13 0;
#X connect 19 0 21 0;
#X connect 20 0 11 0;
#X connect 21 0 12 0;
#X connect 23 0 29 0;
#X connect 25 0 35 0;
#X connect 27 0 34 0;
#X connect 29 0 32 0;
#X connect 29 1 33 0;
#X connect 30 0 26 0;
#X connect 31 0 26 1;
#X connect 32 0 24 0;
#X connect 33 0 24 1;
#X connect 34 0 28 0;
#X connect 34 0 11 0;
#X connect 34 1 28 1;
#X connect 34 1 12 0;
#X connect 35 0 30 0;
#X connect 35 1 31 0;
