#N canvas 0 50 928 749 10;
#X obj 21 56 inlet~;
#X obj 30 86 delwrite~ combdel 500;
#X obj 200 170 delread4~ combdel;
#X obj 258 58 inlet~;
#X obj 20 323 outlet~;
#X obj 200 113 /~;
#X msg 190 49 1;
#X obj 190 72 sig~;
#X obj 200 144 *~ 1000;
#X obj 190 17 loadbang;
#X text 20 36 audio in;
#X text 257 37 resonant frequency;
#X obj 253 85 *~ 8;
#X obj 200 196 *~ 0.9;
#X obj 89 175 receive node2;
#X obj 83 225 *~;
#X floatatom 109 199 5 0 0 0 - - -, f 5;
#X obj 23 276 hip~ 5;
#X connect 0 0 1 0;
#X connect 0 0 17 0;
#X connect 2 0 13 0;
#X connect 3 0 12 0;
#X connect 5 0 8 0;
#X connect 6 0 7 0;
#X connect 7 0 5 0;
#X connect 8 0 2 0;
#X connect 9 0 6 0;
#X connect 12 0 5 1;
#X connect 13 0 1 0;
#X connect 13 0 15 0;
#X connect 14 0 15 1;
#X connect 15 0 17 0;
#X connect 16 0 15 1;
#X connect 17 0 4 0;
