#N canvas 0 29 1321 777 12;
#X obj 269 21 loadbang;
#X obj 283 235 soundfiler;
#X obj 390 119 i \$0;
#X floatatom 278 272 15 0 0 0 - - -;
#X obj 270 72 t b b;
#N canvas 0 22 450 278 (subpatch) 0;
#X array \$0-sound-L 94129 float 2;
#X coords 0 1 94129 -1 200 140 1 0 0;
#X restore 652 31 graph;
#X obj 406 361 / 44.1;
#X obj 446 518 line~;
#X obj 404 564 *~;
#X obj 268 52 bng 15 250 50 0 empty empty empty 17 7 0 10 -262144 -1
-1;
#X floatatom 450 275 5 0 0 0 - - -;
#X obj 399 612 tabread4~ \$0-sound-L;
#X obj 450 303 / 1000;
#X floatatom 406 390 15 0 0 0 - - -;
#X msg 644 416 0;
#X obj 600 368 t b b b b;
#X obj 299 165 pack s f;
#X obj 262 121 symbol \$1;
#X obj 636 252 inlet;
#X msg 434 483 1 \$1;
#X obj 436 452 f;
#X obj 569 411 * \$2;
#X msg 545 577 0;
#X obj 353 697 outlet~;
#X msg 281 200 read -resize Sounds/\$1.wav \$2-sound-L \$2-sound-R
;
#N canvas 0 22 450 278 (subpatch) 0;
#X array \$0-sound-R 94129 float 2;
#X coords 0 1 94129 -1 200 140 1 0 0;
#X restore 857 34 graph;
#X msg 761 576 0;
#X obj 615 611 tabread4~ \$0-sound-R;
#X obj 626 698 outlet~;
#X connect 0 0 9 0;
#X connect 1 0 3 0;
#X connect 1 1 10 0;
#X connect 2 0 16 1;
#X connect 3 0 6 0;
#X connect 3 0 8 1;
#X connect 4 0 17 0;
#X connect 4 1 2 0;
#X connect 6 0 13 0;
#X connect 7 0 8 0;
#X connect 8 0 11 0;
#X connect 8 0 27 0;
#X connect 9 0 4 0;
#X connect 10 0 12 0;
#X connect 11 0 23 0;
#X connect 12 0 6 1;
#X connect 13 0 21 0;
#X connect 14 0 7 0;
#X connect 15 2 20 0;
#X connect 15 3 14 0;
#X connect 16 0 24 0;
#X connect 17 0 16 0;
#X connect 18 0 15 0;
#X connect 19 0 7 0;
#X connect 20 0 19 0;
#X connect 21 0 20 1;
#X connect 22 0 11 1;
#X connect 24 0 1 0;
#X connect 26 0 27 1;
#X connect 27 0 28 0;
