#N canvas 0 29 1321 777 12;
#X obj 269 21 loadbang;
#X obj 283 235 soundfiler;
#X obj 390 119 i \$0;
#X floatatom 278 272 15 0 0 0 - - -;
#X obj 270 72 t b b;
#N canvas 0 22 450 278 (subpatch) 0;
#X array \$0-sound-L 81958 float 2;
#X coords 0 1 81958 -1 200 140 1 0 0;
#X restore 652 31 graph;
#X obj 419 315 / 44.1;
#X obj 471 594 line~;
#X obj 429 640 *~;
#X obj 268 52 bng 15 250 50 0 empty empty empty 17 7 0 10 -262144 -1
-1;
#X floatatom 463 229 5 0 0 0 - - -;
#X obj 424 688 tabread4~ \$0-sound-L;
#X obj 463 257 / 1000;
#X floatatom 419 344 15 0 0 0 - - -;
#X msg 710 355 0;
#X obj 666 307 t b b b b;
#X obj 299 165 pack s f;
#X obj 262 121 symbol \$1;
#X obj 702 191 inlet;
#X msg 459 559 1 \$1;
#X obj 461 528 f;
#X obj 459 384 * \$2;
#X msg 570 653 0;
#X obj 378 773 outlet~;
#X msg 281 200 read -resize Sounds/\$1.wav \$2-sound-L \$2-sound-R
;
#N canvas 0 22 450 278 (subpatch) 0;
#X array \$0-sound-R 81958 float 2;
#X coords 0 1 81958 -1 200 140 1 0 0;
#X restore 857 34 graph;
#X msg 786 652 0;
#X obj 640 687 tabread4~ \$0-sound-R;
#X obj 651 774 outlet~;
#X obj 482 755 throw~ output_L;
#X obj 751 773 throw~ output_R;
#X obj 477 719 *~ 0.4;
#X obj 723 732 *~ 0.4;
#X obj 726 260 bng 15 250 50 0 empty empty empty 17 7 0 10 -262144
-1 -1;
#X obj 550 291 random 50;
#X obj 550 315 / 100;
#X obj 550 339 - 0.25;
#X obj 475 468 *;
#X obj 550 363 + 1;
#X floatatom 550 387 5 0 0 0 - - -;
#X obj 558 257 bng 15 250 50 0 empty empty empty 17 7 0 10 -262144
-1 -1;
#X connect 0 0 9 0;
#X connect 1 0 3 0;
#X connect 1 1 10 0;
#X connect 2 0 16 1;
#X connect 3 0 6 0;
#X connect 3 0 8 1;
#X connect 4 0 17 0;
#X connect 4 1 2 0;
#X connect 6 0 13 0;
#X connect 7 0 8 0;
#X connect 8 0 11 0;
#X connect 8 0 27 0;
#X connect 9 0 4 0;
#X connect 10 0 12 0;
#X connect 11 0 23 0;
#X connect 11 0 31 0;
#X connect 12 0 6 1;
#X connect 13 0 21 0;
#X connect 14 0 7 0;
#X connect 15 1 20 0;
#X connect 15 2 34 0;
#X connect 15 3 14 0;
#X connect 16 0 24 0;
#X connect 17 0 16 0;
#X connect 18 0 15 0;
#X connect 19 0 7 0;
#X connect 20 0 19 0;
#X connect 21 0 37 1;
#X connect 22 0 11 1;
#X connect 24 0 1 0;
#X connect 26 0 27 1;
#X connect 27 0 28 0;
#X connect 27 0 32 0;
#X connect 31 0 29 0;
#X connect 32 0 30 0;
#X connect 33 0 15 0;
#X connect 34 0 35 0;
#X connect 35 0 36 0;
#X connect 36 0 38 0;
#X connect 37 0 20 1;
#X connect 38 0 39 0;
#X connect 39 0 37 0;
#X connect 40 0 34 0;
