#N canvas 163 170 1244 632 24;
#X obj 428 39 adc~;
#X obj 452 613 dac~;
#X obj 383 548 *~ 0.1;
#X obj 492 552 *~ 0.1;
#X obj 257 491 rev2~ 100 95 3000 90;
#X obj 257 442 hip~ 2000;
#X obj 149 244 loadbang;
#X text 578 339 bug -> need to send argument to set timing;
#X obj 420 88 delwrite~ echo 2000;
#X obj 149 323 delread~ echo 1800;
#X obj 749 100 r proximity;
#X obj 716 376 * 0.9;
#X obj 716 412 + 0.1;
#X msg 149 281 1800;
#X obj 555 179 expr 1-$f1;
#X obj 347 218 * 1600;
#X obj 347 254 + 200;
#X floatatom 785 152 5 0 0 0 - - -;
#X obj 574 268 * 2000;
#X obj 815 502 * 0.2;
#X obj 656 582 *~;
#X connect 0 0 8 0;
#X connect 2 0 1 0;
#X connect 3 0 1 1;
#X connect 4 0 2 0;
#X connect 4 1 3 0;
#X connect 5 0 4 0;
#X connect 5 0 20 0;
#X connect 6 0 13 0;
#X connect 9 0 5 0;
#X connect 10 0 11 0;
#X connect 10 0 14 0;
#X connect 10 0 19 0;
#X connect 11 0 12 0;
#X connect 12 0 3 1;
#X connect 12 0 2 1;
#X connect 13 0 9 0;
#X connect 14 0 15 0;
#X connect 14 0 18 0;
#X connect 15 0 16 0;
#X connect 16 0 9 0;
#X connect 17 0 14 0;
#X connect 17 0 11 0;
#X connect 18 0 5 1;
#X connect 19 0 20 1;
#X connect 20 0 8 0;
