#N canvas 79 25 1322 814 24;
#X obj 428 39 adc~;
#X obj 249 785 dac~;
#X obj 442 598 rev2~ 100 95 3000 90;
#X obj 328 483 hip~ 2000;
#X text 628 340 bug -> need to send argument to set timing;
#X obj 420 88 delwrite~ echo 2000;
#X obj 752 31 r proximity;
#X obj 554 199 expr 1-$f1;
#X obj 155 161 * 1600;
#X floatatom 785 152 5 0 0 0 - - -;
#X obj 830 568 *~;
#X obj 781 82 print;
#X obj 903 117 hsl 128 15 0 1 0 0 empty empty empty -2 -8 0 10 -262144
-1 -1 12400 1;
#X floatatom 154 234 5 0 0 0 - - -;
#X msg 158 277 \$1 80;
#X floatatom 532 442 15 0 0 0 - - -;
#X obj 532 345 mtof;
#X obj 538 264 * 100;
#X floatatom 991 225 5 0 0 0 - - -;
#X obj 991 190 - 0.7;
#X obj 1010 273 moses 0;
#X floatatom 878 423 5 0 0 0 - - -;
#X floatatom 878 494 5 0 0 0 - - -;
#X obj 878 457 * 3;
#X obj 265 278 print delaytime;
#X obj 189 358 line~;
#X obj 272 416 delread4~ echo;
#X obj 566 652 *~;
#X obj 181 721 *~ 0.8;
#X obj 289 724 *~ 0.8;
#X msg 21 288 \$1 80;
#X obj 35 357 line~;
#X obj 41 415 *~ 0.99999;
#X obj 46 497 delread4~ echo;
#X obj 73 536 delread4~ echo;
#X obj 68 454 *~ 1.0001;
#X obj 77 609 *~;
#X obj 153 617 *~;
#X floatatom 690 244 5 0 0 0 - - -;
#X connect 0 0 5 0;
#X connect 2 0 27 0;
#X connect 3 0 2 0;
#X connect 3 0 10 0;
#X connect 3 0 28 0;
#X connect 3 0 29 0;
#X connect 6 0 7 0;
#X connect 6 0 12 0;
#X connect 7 0 8 0;
#X connect 7 0 17 0;
#X connect 7 0 38 0;
#X connect 8 0 13 0;
#X connect 9 0 7 0;
#X connect 10 0 5 0;
#X connect 12 0 9 0;
#X connect 12 0 19 0;
#X connect 13 0 14 0;
#X connect 13 0 24 0;
#X connect 13 0 30 0;
#X connect 14 0 25 0;
#X connect 15 0 3 1;
#X connect 16 0 15 0;
#X connect 17 0 16 0;
#X connect 18 0 20 0;
#X connect 19 0 18 0;
#X connect 20 1 21 0;
#X connect 21 0 23 0;
#X connect 22 0 10 1;
#X connect 22 0 37 1;
#X connect 22 0 36 1;
#X connect 23 0 22 0;
#X connect 25 0 26 0;
#X connect 26 0 3 0;
#X connect 27 0 28 0;
#X connect 27 0 29 0;
#X connect 28 0 1 0;
#X connect 29 0 1 1;
#X connect 30 0 31 0;
#X connect 31 0 32 0;
#X connect 32 0 33 0;
#X connect 33 0 36 0;
#X connect 34 0 37 0;
#X connect 35 0 34 0;
#X connect 36 0 28 0;
#X connect 37 0 29 0;
#X connect 38 0 27 1;
