#N canvas 24 23 1384 835 24;
#X obj 115 384 soundfiler;
#X floatatom 108 445 15 0 0 0 - - -;
#X text 332 445 length of soundfile [in samples];
#X text 319 569 length in milliseconds;
#X text 209 511 dividing by sample rate;
#X obj 107 512 / 44.1;
#X floatatom 99 572 15 0 0 0 - - -;
#X obj 227 207 i \$0;
#N canvas 0 22 450 278 (subpatch) 0;
#X array \$0-soundL 676289 float 2;
#X coords 0 1 676289 -1 200 140 1 0 0;
#X restore 39 40 graph;
#X obj 287 91 bng 40 250 50 0 empty empty empty 17 7 0 10 -262144 -1
-1;
#X obj 829 502 phasor~;
#X obj 629 45 expr 1000/$f1;
#X floatatom 631 101 5 0 0 0 - - -;
#X obj 737 611 *~;
#X text 684 12 convert ms to Hz;
#X text 707 102 frequency in Hz;
#X text 859 470 generate playback wave;
#X text 795 589 multiply by samples;
#X text 1089 608 play sound;
#X text 796 746 audio output;
#X obj 821 296 * 1;
#X floatatom 865 172 5 0 0 0 - - -;
#X obj 867 215 t b f;
#X text 954 173 pitch multiplier;
#X text 948 214 trigger calculation;
#X obj 584 431 tgl 25 0 empty empty empty 17 7 0 10 -262144 -1 -1 1
1;
#X text 684 370 play/stop;
#X obj 964 104 f \$1;
#X obj 963 60 loadbang;
#X text 1043 102 pitch argument;
#X obj 224 253 pack f s;
#X obj 333 188 symbol \$2;
#X obj 288 141 t b b;
#X obj 289 54 loadbang;
#X obj 769 559 *~;
#X obj 584 368 inlet;
#X obj 473 685 snapshot~;
#X obj 403 633 loadbang;
#X obj 554 648 metro 10;
#X obj 534 741 hsl 128 15 0 1 0 0 empty empty empty -2 -8 0 10 -262144
-1 -1 11737 1;
#X obj 559 616 bng 15 250 50 0 empty empty empty 17 7 0 10 -262144
-1 -1;
#X obj 540 772 outlet;
#X msg 115 318 read -resize sounds/\$2.wav \$1-soundL \$1-soundR;
#N canvas 0 22 450 278 (subpatch) 0;
#X array \$0-soundR 676289 float 2;
#X coords 0 1 676289 -1 200 140 1 0 0;
#X restore 421 37 graph;
#X obj 1040 664 tabread4~ \$0-soundR;
#X obj 733 663 tabread4~ \$0-soundL;
#X obj 736 788 dac~;
#X obj 1088 5 inlet;
#X msg 836 350 \$1 20;
#X obj 836 386 line~;
#X obj 731 724 *~ 0.7;
#X obj 1051 720 *~ 0.7;
#X obj 918 799 outlet~;
#X obj 1079 804 outlet~;
#X connect 0 0 1 0;
#X connect 1 0 5 0;
#X connect 1 0 13 1;
#X connect 5 0 6 0;
#X connect 6 0 11 0;
#X connect 7 0 30 0;
#X connect 9 0 32 0;
#X connect 10 0 34 0;
#X connect 11 0 12 0;
#X connect 12 0 20 0;
#X connect 13 0 45 0;
#X connect 13 0 44 0;
#X connect 20 0 48 0;
#X connect 21 0 22 0;
#X connect 22 0 20 0;
#X connect 22 1 20 1;
#X connect 25 0 34 1;
#X connect 27 0 21 0;
#X connect 28 0 27 0;
#X connect 30 0 42 0;
#X connect 31 0 30 1;
#X connect 32 0 7 0;
#X connect 32 1 31 0;
#X connect 33 0 9 0;
#X connect 34 0 13 0;
#X connect 34 0 36 0;
#X connect 35 0 25 0;
#X connect 36 0 39 0;
#X connect 37 0 38 0;
#X connect 38 0 36 0;
#X connect 39 0 41 0;
#X connect 40 0 38 0;
#X connect 42 0 0 0;
#X connect 44 0 51 0;
#X connect 45 0 50 0;
#X connect 47 0 21 0;
#X connect 48 0 49 0;
#X connect 49 0 10 0;
#X connect 50 0 46 0;
#X connect 50 0 52 0;
#X connect 51 0 46 1;
#X connect 51 0 53 0;
