#N canvas 94 119 1310 675 24;
#X obj 110 61 tgl 25 1 empty empty empty 17 7 0 10 -262144 -1 -1 1
1;
#X obj 86 233 tgl 25 1 empty empty empty 17 7 0 10 -262144 -1 -1 1
1;
#X floatatom 378 142 5 0 0 0 - - -;
#X floatatom 360 296 5 0 0 0 - - -;
#X floatatom 501 98 5 0 0 0 - - -;
#X obj 157 195 looper 0.1 forest;
#X obj 133 367 looper 0.18 forest;
#X obj 583 223 looper 0.2 crackle_short_wide_close;
#X obj 629 131 tgl 15 1 empty empty empty 17 7 0 10 -262144 -1 -1 1
1;
#X floatatom 1056 174 5 0 0 0 - - -;
#X obj 625 285 tgl 15 1 empty empty empty 17 7 0 10 -262144 -1 -1 1
1;
#X floatatom 1052 328 5 0 0 0 - - -;
#X obj 583 376 looper 0.1 crackle_short_wide_close;
#X obj 661 504 dac~;
#X obj 644 464 rev3~ 120 90 3000 20;
#X connect 0 0 5 0;
#X connect 1 0 6 0;
#X connect 2 0 5 1;
#X connect 3 0 6 1;
#X connect 8 0 7 0;
#X connect 9 0 7 1;
#X connect 10 0 12 0;
#X connect 11 0 12 1;
#X connect 12 1 14 0;
#X connect 12 2 14 1;
#X connect 14 0 13 0;
#X connect 14 1 13 1;
