#N canvas 94 119 1310 675 24;
#X obj 110 61 tgl 25 1 empty empty empty 17 7 0 10 -262144 -1 -1 1
1;
#X obj 157 195 looper 0.2 forest;
#X obj 86 233 tgl 25 1 empty empty empty 17 7 0 10 -262144 -1 -1 1
1;
#X floatatom 378 142 5 0 0 0 - - -;
#X floatatom 360 296 5 0 0 0 - - -;
#X floatatom 501 98 5 0 0 0 - - -;
#X obj 133 367 looper 0.18 forest;
#X connect 0 0 1 0;
#X connect 2 0 6 0;
#X connect 3 0 1 1;
#X connect 4 0 6 1;
