#N canvas 94 119 1310 675 24;
#X obj 110 61 tgl 25 1 empty empty empty 17 7 0 10 -262144 -1 -1 1
1;
#X text 431 121 that we can layer at different speeds;
#X text 422 69 loop DIFFERENT sounds;
#X text 461 191 and also sampling?!?!;
#X obj 157 195 looper 0.2 forest;
#X obj 86 233 tgl 25 1 empty empty empty 17 7 0 10 -262144 -1 -1 1
1;
#X obj 133 367 looper 0.2 forest;
#X msg 376 293 0.5;
#X obj 374 247 loadbang;
#X connect 0 0 4 0;
#X connect 5 0 6 0;
#X connect 7 0 6 1;
#X connect 8 0 7 0;
