#N canvas 541 178 831 704 12;
#X obj 135 440 hsl 128 15 0 1 0 0 empty empty empty -2 -8 0 10 -262144
-1 -1 0 1;
#X obj 132 463 * 220.5;
#X obj 130 516 +~;
#X obj 129 547 expr~ 220.5-$v1;
#X obj 131 486 sig~;
#X obj 128 585 tabread~ hann;
#X obj 230 586 tabread~ hann;
#X obj 128 376 i \$1;
#X obj 129 350 loadbang;
#X obj 130 404 / 1;
#X obj 200 334 r num_samples;
#X obj 202 406 t b f;
#X connect 0 0 1 0;
#X connect 1 0 4 0;
#X connect 2 0 3 0;
#X connect 2 0 6 0;
#X connect 3 0 5 0;
#X connect 4 0 2 0;
#X connect 7 0 9 0;
#X connect 8 0 7 0;
#X connect 9 0 0 0;
#X connect 10 0 11 0;
#X connect 11 0 9 0;
#X connect 11 1 9 1;
