#N canvas 0 50 868 823 10;
#X obj 201 5 noise~;
#X obj 201 84 +~ 0.5;
#X obj 200 108 *~;
#X obj 200 132 *~;
#X obj 201 165 threshold~ 0.5 100 0.2 100;
#X obj 201 185 bng 16 250 50 0 empty empty empty 17 7 0 10 -262144
-1 -1;
#X obj 203 288 vline~;
#X obj 185 316 *~;
#X obj 202 211 random 100;
#X obj 17 101 noise~;
#X obj 19 209 bp~ 880 50;
#X obj 57 184 + 880;
#X obj 18 259 clip~ -0.2 0.2;
#X obj 18 236 *~ 4;
#X obj 201 58 *~ 10;
#X obj 201 30 lop~ 10;
#X obj 204 234 + 10;
#X obj 182 379 outlet~;
#X obj 184 347 *~;
#X obj 255 309 receive node4;
#X msg 204 266 2 10 \, 0 \$1 10;
#X obj 265 378 outlet~;
#X obj 241 344 *~;
#X connect 0 0 15 0;
#X connect 1 0 2 0;
#X connect 1 0 2 1;
#X connect 2 0 3 0;
#X connect 2 0 3 1;
#X connect 3 0 4 0;
#X connect 4 0 5 0;
#X connect 5 0 8 0;
#X connect 6 0 7 1;
#X connect 6 0 22 0;
#X connect 7 0 18 0;
#X connect 8 0 11 0;
#X connect 8 0 16 0;
#X connect 9 0 10 0;
#X connect 10 0 13 0;
#X connect 11 0 10 1;
#X connect 12 0 7 0;
#X connect 13 0 12 0;
#X connect 14 0 1 0;
#X connect 15 0 14 0;
#X connect 16 0 20 0;
#X connect 19 0 18 1;
#X connect 19 0 22 1;
#X connect 20 0 6 0;
#X connect 22 0 21 0;
