#N canvas 566 106 1032 743 10;
#X obj 13 54 soundfiler;
#N canvas 0 50 450 250 (subpatch) 0;
#X array whisperArray 1.03011e+006 float 2;
#X coords 0 1 1.03011e+006 -1 200 140 1;
#X restore 334 30 graph;
#X msg 14 27 read -resize sounds/Whispers.wav whisperArray;
#X obj 14 5 loadbang;
#X obj 17 210 tabread4~ whisperArray;
#X obj 45 132 phasor~ 1;
#X obj 17 161 *~;
#X obj 61 81 / 44100;
#X obj 17 188 +~ 1;
#X floatatom 144 149 5 0 0 0 - - -, f 5;
#X obj 48 106 expr 1/$f1;
#X obj 24 339 ADCHelper;
#X obj 79 312 tgl 15 0 empty empty empty 17 7 0 10 -262144 -1 -1 0
1;
#X obj 22 291 *~;
#X obj 36 231 receive occlusion;
#X obj 161 80 print numSamples;
#X obj 25 316 dac~;
#X connect 0 0 6 1;
#X connect 0 0 7 0;
#X connect 0 0 15 0;
#X connect 2 0 0 0;
#X connect 3 0 2 0;
#X connect 4 0 13 0;
#X connect 5 0 6 0;
#X connect 6 0 8 0;
#X connect 7 0 10 0;
#X connect 8 0 4 0;
#X connect 10 0 5 0;
#X connect 10 0 9 0;
#X connect 12 0 11 2;
#X connect 13 0 16 0;
#X connect 13 0 16 1;
#X connect 14 0 13 1;
