#N canvas 274 23 904 761 12;
#X obj 99 59 loadbang;
#X obj 99 186 mtof;
#X obj 114 415 osc~;
#X obj 98 217 sig~;
#X obj 153 293 *~ 1.5;
#X obj 153 314 osc~;
#X floatatom 228 198 5 0 0 0 - - -;
#X obj 109 384 +~;
#X obj 144 347 *~ 20;
#X floatatom 205 314 5 0 0 0 - - -;
#X obj 230 119 random 1000;
#X obj 230 140 / 500;
#X obj 229 81 loadbang;
#X obj 300 216 random 400;
#X obj 300 237 + 100;
#X obj 301 183 loadbang;
#X obj 387 423 line~;
#X obj 102 489 *~;
#X msg 423 376 1 10;
#X obj 364 328 delay 10;
#X msg 347 372 0.3 100;
#X obj 411 281 bng 15 250 50 0 empty empty empty 17 7 0 10 -262144
-1 -1;
#X obj 278 328 delay 110;
#X msg 275 370 0 5000;
#X obj 429 44 bng 15 250 50 0 empty empty empty 17 7 0 10 -262144 -1
-1;
#X obj 429 7 inlet;
#X obj 119 650 *~;
#X obj 459 528 ys.panning;
#X obj 167 651 *~;
#X obj 104 517 *~ 0.2;
#X obj 427 69 t b b b b b;
#X obj 507 298 random 100;
#X obj 507 322 / 100;
#X floatatom 99 138 5 0 0 0 - - -;
#X obj 99 165 + 75;
#X obj 99 107 random 25;
#X obj 109 696 outlet~;
#X obj 181 698 outlet~;
#X connect 0 0 35 0;
#X connect 1 0 3 0;
#X connect 2 0 17 0;
#X connect 3 0 7 0;
#X connect 3 0 4 0;
#X connect 4 0 5 0;
#X connect 5 0 8 0;
#X connect 6 0 4 1;
#X connect 7 0 2 0;
#X connect 8 0 7 1;
#X connect 9 0 8 1;
#X connect 10 0 11 0;
#X connect 11 0 6 0;
#X connect 12 0 10 0;
#X connect 13 0 14 0;
#X connect 14 0 9 0;
#X connect 15 0 13 0;
#X connect 16 0 17 1;
#X connect 17 0 29 0;
#X connect 18 0 16 0;
#X connect 19 0 20 0;
#X connect 20 0 16 0;
#X connect 21 0 19 0;
#X connect 21 0 18 0;
#X connect 21 0 22 0;
#X connect 22 0 23 0;
#X connect 23 0 16 0;
#X connect 24 0 30 0;
#X connect 25 0 24 0;
#X connect 26 0 36 0;
#X connect 27 0 26 1;
#X connect 27 1 28 1;
#X connect 28 0 37 0;
#X connect 29 0 26 0;
#X connect 29 0 28 0;
#X connect 30 0 35 0;
#X connect 30 1 10 0;
#X connect 30 2 13 0;
#X connect 30 3 21 0;
#X connect 30 4 31 0;
#X connect 31 0 32 0;
#X connect 32 0 27 0;
#X connect 33 0 34 0;
#X connect 34 0 1 0;
#X connect 35 0 33 0;
