#N canvas 365 23 741 532 12;
#X obj 170 328 clone particle_synth 16;
#X obj 165 160 bng 15 250 50 0 empty empty empty 17 7 0 10 -262144
-1 -1;
#X msg 159 181 1;
#X obj 159 205 +;
#X floatatom 159 229 5 0 0 0 - - -;
#X obj 159 252 % 16;
#X msg 170 292 \$1 bang;
#X obj 167 109 metro 200;
#X obj 167 70 tgl 15 0 empty empty empty 17 7 0 10 -262144 -1 -1 1
1;
#X obj 224 20 loadbang;
#X msg 224 44 1;
#X obj 324 98 + 150;
#X obj 332 44 random 150;
#X obj 201 454 dac~;
#X obj 413 333 adc~;
#X obj 200 393 *~;
#X obj 262 396 *~;
#X obj 470 393 tgl 15 0 empty empty empty 17 7 0 10 -262144 -1 -1 0
1;
#X msg 470 413 \$1 40;
#X obj 464 449 line~;
#X obj 329 549 dac~;
#X obj 328 488 *~;
#X obj 390 491 *~;
#X connect 0 0 15 0;
#X connect 0 0 21 0;
#X connect 0 1 16 0;
#X connect 0 1 22 0;
#X connect 1 0 2 0;
#X connect 1 0 12 0;
#X connect 2 0 3 0;
#X connect 3 0 4 0;
#X connect 4 0 3 1;
#X connect 4 0 5 0;
#X connect 5 0 6 0;
#X connect 6 0 0 0;
#X connect 7 0 1 0;
#X connect 8 0 7 0;
#X connect 9 0 10 0;
#X connect 10 0 8 0;
#X connect 11 0 7 1;
#X connect 12 0 11 0;
#X connect 14 0 15 1;
#X connect 14 1 16 1;
#X connect 15 0 13 0;
#X connect 16 0 13 1;
#X connect 17 0 18 0;
#X connect 18 0 19 0;
#X connect 19 0 22 1;
#X connect 19 0 21 1;
#X connect 21 0 20 0;
#X connect 22 0 20 1;
