#N canvas 0 23 1011 697 12;
#X obj 56 87 cos;
#X floatatom 56 108 5 0 0 0 - - -;
#X obj 62 59 * 1.57079;
#X obj 96 135 expr 1-$f1;
#X obj 70 23 inlet;
#X obj 58 190 outlet;
#X obj 132 182 outlet;
#X connect 0 0 1 0;
#X connect 1 0 3 0;
#X connect 1 0 5 0;
#X connect 2 0 0 0;
#X connect 3 0 6 0;
#X connect 4 0 2 0;
